{
  "accessors": [
    {
      "bufferView": 2,
      "componentType": 5126,
      "count": 620,
      "max": [
        440.30450439453125,
        437.6640625,
        213.12747192382813
      ],
      "min": [
        -379.4991455078125,
        -375.0529479980469,
        -272.0259704589844
      ],
      "type": "VEC3"
    },
    {
      "bufferView": 2,
      "byteOffset": 7440,
      "componentType": 5126,
      "count": 620,
      "max": [
        1.0,
        1.0,
        1.0
      ],
      "min": [
        -1.0,
        -1.0,
        -1.8899881979450583e-06
      ],
      "type": "VEC3"
    },
    {
      "bufferView": 1,
      "componentType": 5126,
      "count": 620,
      "max": [
        4.930212497711182,
        2.5738179683685303
      ],
      "min": [
        -3.596193313598633,
        -2.9547297954559326
      ],
      "type": "VEC2"
    },
    {
      "bufferView": 0,
      "componentType": 5125,
      "count": 930,
      "type": "SCALAR"
    },
    {
      "bufferView": 2,
      "byteOffset": 14880,
      "componentType": 5126,
      "count": 7187,
      "max": [
        441.09210205078125,
        438.4515380859375,
        165.79974365234375
      ],
      "min": [
        -380.286865234375,
        -375.8406677246094,
        -274.0304870605469
      ],
      "type": "VEC3"
    },
    {
      "bufferView": 2,
      "byteOffset": 101124,
      "componentType": 5126,
      "count": 7187,
      "max": [
        1.0,
        1.0,
        1.0
      ],
      "min": [
        -1.0,
        -1.0,
        -1.0
      ],
      "type": "VEC3"
    },
    {
      "bufferView": 1,
      "byteOffset": 4960,
      "componentType": 5126,
      "count": 7187,
      "max": [
        6.101869106292725,
        6.068334102630615
      ],
      "min": [
        -5.101869106292725,
        -4.273177623748779
      ],
      "type": "VEC2"
    },
    {
      "bufferView": 0,
      "byteOffset": 3720,
      "componentType": 5125,
      "count": 11664,
      "type": "SCALAR"
    },
    {
      "bufferView": 2,
      "byteOffset": 187368,
      "componentType": 5126,
      "count": 1733,
      "max": [
        395.54156494140625,
        398.8060302734375,
        174.54306030273438
      ],
      "min": [
        -394.0650634765625,
        -389.6210021972656,
        -275.0997314453125
      ],
      "type": "VEC3"
    },
    {
      "bufferView": 2,
      "byteOffset": 208164,
      "componentType": 5126,
      "count": 1733,
      "max": [
        1.0,
        1.0,
        1.0
      ],
      "min": [
        -1.0,
        -1.0,
        -1.0
      ],
      "type": "VEC3"
    },
    {
      "bufferView": 1,
      "byteOffset": 62456,
      "componentType": 5126,
      "count": 1733,
      "max": [
        5.564835071563721,
        5.564835071563721
      ],
      "min": [
        -4.5648345947265625,
        -4.448188781738281
      ],
      "type": "VEC2"
    },
    {
      "bufferView": 0,
      "byteOffset": 50376,
      "componentType": 5125,
      "count": 2676,
      "type": "SCALAR"
    },
    {
      "bufferView": 2,
      "byteOffset": 228960,
      "componentType": 5126,
      "count": 1714,
      "max": [
        455.6873779296875,
        453.047119140625,
        209.99972534179688
      ],
      "min": [
        -394.8805847167969,
        -390.4358825683594,
        -175.20462036132813
      ],
      "type": "VEC3"
    },
    {
      "bufferView": 2,
      "byteOffset": 249528,
      "componentType": 5126,
      "count": 1714,
      "max": [
        1.0,
        1.0,
        1.0
      ],
      "min": [
        -1.0,
        -1.0,
        -1.0
      ],
      "type": "VEC3"
    },
    {
      "bufferView": 1,
      "byteOffset": 76320,
      "componentType": 5126,
      "count": 1714,
      "max": [
        6.287230968475342,
        6.253696918487549
      ],
      "min": [
        -5.287230968475342,
        -4.458538055419922
      ],
      "type": "VEC2"
    },
    {
      "bufferView": 0,
      "byteOffset": 61080,
      "componentType": 5125,
      "count": 2676,
      "type": "SCALAR"
    },
    {
      "bufferView": 2,
      "byteOffset": 270096,
      "componentType": 5126,
      "count": 392,
      "max": [
        465.592529296875,
        461.3570861816406,
        189.76707458496094
      ],
      "min": [
        -447.89508056640625,
        -443.5649108886719,
        -175.20465087890625
      ],
      "type": "VEC3"
    },
    {
      "bufferView": 2,
      "byteOffset": 274800,
      "componentType": 5126,
      "count": 392,
      "max": [
        1.0,
        1.0,
        1.0
      ],
      "min": [
        -1.0,
        -1.0,
        -1.0
      ],
      "type": "VEC3"
    },
    {
      "bufferView": 1,
      "byteOffset": 90032,
      "componentType": 5126,
      "count": 392,
      "max": [
        6.413025379180908,
        6.359233379364014
      ],
      "min": [
        -5.413025379180908,
        -5.133274555206299
      ],
      "type": "VEC2"
    },
    {
      "bufferView": 0,
      "byteOffset": 71784,
      "componentType": 5125,
      "count": 588,
      "type": "SCALAR"
    },
    {
      "bufferView": 2,
      "byteOffset": 279504,
      "componentType": 5126,
      "count": 28,
      "max": [
        787.401611328125,
        787.401611328125,
        206.06271362304688
      ],
      "min": [
        -787.401611328125,
        -787.4014892578125,
        -275.09979248046875
      ],
      "type": "VEC3"
    },
    {
      "bufferView": 2,
      "byteOffset": 279840,
      "componentType": 5126,
      "count": 28,
      "max": [
        8.384257910165616e-08,
        0.0,
        1.0
      ],
      "min": [
        0.0,
        -1.645067300160008e-07,
        1.0
      ],
      "type": "VEC3"
    },
    {
      "bufferView": 1,
      "byteOffset": 93168,
      "componentType": 5126,
      "count": 28,
      "max": [
        10.500001907348633,
        10.500000953674316
      ],
      "min": [
        -9.500001907348633,
        -9.50000286102295
      ],
      "type": "VEC2"
    },
    {
      "bufferView": 0,
      "byteOffset": 74136,
      "componentType": 5125,
      "count": 42,
      "type": "SCALAR"
    },
    {
      "bufferView": 2,
      "byteOffset": 280176,
      "componentType": 5126,
      "count": 280,
      "max": [
        241.391357421875,
        213.41302490234375,
        275.09979248046875
      ],
      "min": [
        -227.7374267578125,
        -263.0846252441406,
        230.013671875
      ],
      "type": "VEC3"
    },
    {
      "bufferView": 2,
      "byteOffset": 283536,
      "componentType": 5126,
      "count": 280,
      "max": [
        1.0,
        1.0,
        1.0
      ],
      "min": [
        -1.0,
        -1.0,
        -1.0
      ],
      "type": "VEC3"
    },
    {
      "bufferView": 1,
      "byteOffset": 93392,
      "componentType": 5126,
      "count": 280,
      "max": [
        3.8411755561828613,
        3.993767261505127
      ],
      "min": [
        -2.8411757946014404,
        -2.8411757946014404
      ],
      "type": "VEC2"
    },
    {
      "bufferView": 0,
      "byteOffset": 74304,
      "componentType": 5125,
      "count": 540,
      "type": "SCALAR"
    },
    {
      "bufferView": 2,
      "byteOffset": 286896,
      "componentType": 5126,
      "count": 160,
      "max": [
        235.42657470703125,
        207.44827270507813,
        267.22576904296875
      ],
      "min": [
        -221.772705078125,
        -257.1199035644531,
        206.06271362304688
      ],
      "type": "VEC3"
    },
    {
      "bufferView": 2,
      "byteOffset": 288816,
      "componentType": 5126,
      "count": 160,
      "max": [
        1.0,
        1.0,
        0.0
      ],
      "min": [
        -1.0,
        -1.0,
        -4.989544777345145e-07
      ],
      "type": "VEC3"
    },
    {
      "bufferView": 1,
      "byteOffset": 95632,
      "componentType": 5126,
      "count": 160,
      "max": [
        3.7654237747192383,
        3.8937671184539795
      ],
      "min": [
        -2.7654240131378174,
        3.1169965267181396
      ],
      "type": "VEC2"
    },
    {
      "bufferView": 0,
      "byteOffset": 76464,
      "componentType": 5125,
      "count": 240,
      "type": "SCALAR"
    },
    {
      "bufferView": 2,
      "byteOffset": 290736,
      "componentType": 5126,
      "count": 40,
      "max": [
        45.712249755859375,
        -54.81329345703125,
        215.09597778320313
      ],
      "min": [
        -29.403839111328125,
        -97.97027587890625,
        203.28494262695313
      ],
      "type": "VEC3"
    },
    {
      "bufferView": 2,
      "byteOffset": 291216,
      "componentType": 5126,
      "count": 40,
      "max": [
        1.0,
        1.0,
        1.0
      ],
      "min": [
        -1.0,
        -1.0,
        0.0
      ],
      "type": "VEC3"
    },
    {
      "bufferView": 1,
      "byteOffset": 96912,
      "componentType": 5126,
      "count": 40,
      "max": [
        1.7442232370376587,
        3.2317187786102295
      ],
      "min": [
        -0.7442234754562378,
        -0.7442234754562378
      ],
      "type": "VEC2"
    },
    {
      "bufferView": 0,
      "byteOffset": 77424,
      "componentType": 5125,
      "count": 72,
      "type": "SCALAR"
    },
    {
      "bufferView": 2,
      "byteOffset": 291696,
      "componentType": 5126,
      "count": 2674,
      "max": [
        452.90338134765625,
        450.26202392578125,
        174.54299926757813
      ],
      "min": [
        -394.0650634765625,
        -389.6210021972656,
        -186.7696533203125
      ],
      "type": "VEC3"
    },
    {
      "bufferView": 2,
      "byteOffset": 323784,
      "componentType": 5126,
      "count": 2674,
      "max": [
        1.0,
        1.0,
        1.0
      ],
      "min": [
        -1.0,
        -1.0,
        -1.0
      ],
      "type": "VEC3"
    },
    {
      "bufferView": 1,
      "byteOffset": 97232,
      "componentType": 5126,
      "count": 2674,
      "max": [
        6.251873970031738,
        6.218327522277832
      ],
      "min": [
        -5.251873970031738,
        -4.448188781738281
      ],
      "type": "VEC2"
    },
    {
      "bufferView": 0,
      "byteOffset": 77712,
      "componentType": 5125,
      "count": 4578,
      "type": "SCALAR"
    },
    {
      "bufferView": 2,
      "byteOffset": 355872,
      "componentType": 5126,
      "count": 1432,
      "max": [
        470.12677001953125,
        465.23126220703125,
        125.445068359375
      ],
      "min": [
        -452.3642883300781,
        -447.9527893066406,
        -230.96548461914063
      ],
      "type": "VEC3"
    },
    {
      "bufferView": 2,
      "byteOffset": 373056,
      "componentType": 5126,
      "count": 1432,
      "max": [
        1.0,
        1.0,
        1.0
      ],
      "min": [
        -1.0,
        -1.0,
        -1.0
      ],
      "type": "VEC3"
    },
    {
      "bufferView": 1,
      "byteOffset": 118624,
      "componentType": 5126,
      "count": 1432,
      "max": [
        6.470608711242676,
        6.408435344696045
      ],
      "min": [
        -5.470611572265625,
        -5.189001560211182
      ],
      "type": "VEC2"
    },
    {
      "bufferView": 0,
      "byteOffset": 96024,
      "componentType": 5125,
      "count": 2220,
      "type": "SCALAR"
    },
    {
      "bufferView": 2,
      "byteOffset": 390240,
      "componentType": 5126,
      "count": 440,
      "max": [
        469.460693359375,
        464.1585693359375,
        124.0626449584961
      ],
      "min": [
        -451.56353759765625,
        -446.8800354003906,
        -272.33746337890625
      ],
      "type": "VEC3"
    },
    {
      "bufferView": 2,
      "byteOffset": 395520,
      "componentType": 5126,
      "count": 440,
      "max": [
        1.0,
        1.0,
        1.0291626040270785e-06
      ],
      "min": [
        -1.0,
        -1.0,
        -1.0291626040270785e-06
      ],
      "type": "VEC3"
    },
    {
      "bufferView": 1,
      "byteOffset": 130080,
      "componentType": 5126,
      "count": 440,
      "max": [
        6.462151050567627,
        2.0755956172943115
      ],
      "min": [
        -5.462151050567627,
        -2.9586856365203857
      ],
      "type": "VEC2"
    },
    {
      "bufferView": 0,
      "byteOffset": 104904,
      "componentType": 5125,
      "count": 660,
      "type": "SCALAR"
    },
    {
      "bufferView": 2,
      "byteOffset": 400800,
      "componentType": 5126,
      "count": 184,
      "max": [
        431.0943603515625,
        428.4541015625,
        244.0185546875
      ],
      "min": [
        -370.2876281738281,
        -365.8431091308594,
        203.28494262695313
      ],
      "type": "VEC3"
    },
    {
      "bufferView": 2,
      "byteOffset": 403008,
      "componentType": 5126,
      "count": 184,
      "max": [
        1.0,
        1.0,
        1.0
      ],
      "min": [
        -1.0,
        -1.0,
        -1.0
      ],
      "type": "VEC3"
    },
    {
      "bufferView": 1,
      "byteOffset": 133600,
      "componentType": 5126,
      "count": 184,
      "max": [
        5.9748992919921875,
        5.941365718841553
      ],
      "min": [
        -4.9748992919921875,
        -4.146209716796875
      ],
      "type": "VEC2"
    },
    {
      "bufferView": 0,
      "byteOffset": 107544,
      "componentType": 5125,
      "count": 336,
      "type": "SCALAR"
    }
  ],
  "asset": {
    "extras": {
      "author": "sucholudek (https://sketchfab.com/sucholudek)",
      "license": "CC-BY-4.0 (http://creativecommons.org/licenses/by/4.0/)",
      "source": "https://sketchfab.com/3d-models/simple-real-estate-10dd84237356440eba59e16554f42359",
      "title": "Simple Real Estate"
    },
    "generator": "Sketchfab-12.67.0",
    "version": "2.0"
  },
  "bufferViews": [
    {
      "buffer": 0,
      "byteLength": 108888,
      "name": "floatBufferViews",
      "target": 34963
    },
    {
      "buffer": 0,
      "byteLength": 135072,
      "byteOffset": 108888,
      "byteStride": 8,
      "name": "floatBufferViews",
      "target": 34962
    },
    {
      "buffer": 0,
      "byteLength": 405216,
      "byteOffset": 243960,
      "byteStride": 12,
      "name": "floatBufferViews",
      "target": 34962
    }
  ],
  "buffers": [
    {
      "byteLength": 649176,
      "uri": "scene.bin"
    }
  ],
  "extensionsUsed": [
    "KHR_materials_transmission"
  ],
  "materials": [
    {
      "doubleSided": true,
      "name": "13_-_Szyby",
      "pbrMetallicRoughness": {
        "roughnessFactor": 0.0
      }
    },
    {
      "doubleSided": true,
      "name": "14_-_Futryny1",
      "pbrMetallicRoughness": {
        "baseColorFactor": [
          0.1285681113,
          0.0705517523,
          0.0207936345,
          1.0
        ],
        "metallicFactor": 0.0,
        "roughnessFactor": 0.8131027702
      }
    },
    {
      "doubleSided": true,
      "name": "03_-_Tynk3",
      "pbrMetallicRoughness": {
        "baseColorFactor": [
          0.0392157,
          0.0392157,
          0.0392157,
          1.0
        ],
        "metallicFactor": 0.0,
        "roughnessFactor": 0.8929713596
      }
    },
    {
      "doubleSided": true,
      "name": "01_-_Tynk1",
      "pbrMetallicRoughness": {
        "baseColorFactor": [
          0.490196,
          0.490196,
          0.490196,
          1.0
        ],
        "metallicFactor": 0.0,
        "roughnessFactor": 0.8929713596
      }
    },
    {
      "doubleSided": true,
      "name": "04_-_Tynk4",
      "pbrMetallicRoughness": {
        "baseColorFactor": [
          0.784314,
          0.784314,
          0.784314,
          1.0
        ],
        "metallicFactor": 0.0,
        "roughnessFactor": 0.8929713596
      }
    },
    {
      "doubleSided": true,
      "name": "28_-_Use4",
      "pbrMetallicRoughness": {
        "baseColorFactor": [
          0.018704944,
          0.018704944,
          0.0158167555,
          1.0
        ],
        "metallicFactor": 0.0,
        "roughnessFactor": 0.8929713596
      }
    },
    {
      "doubleSided": true,
      "name": "30_-_Use6",
      "pbrMetallicRoughness": {
        "baseColorFactor": [
          0.0898191724,
          0.0983224884,
          0.1717234472,
          1.0
        ],
        "roughnessFactor": 0.0
      }
    },
    {
      "doubleSided": true,
      "name": "29_-_Use5",
      "pbrMetallicRoughness": {
        "baseColorFactor": [
          0.7076012527,
          0.7076012527,
          0.7076012527,
          1.0
        ],
        "metallicFactor": 0.0,
        "roughnessFactor": 0.8929713596
      }
    },
    {
      "doubleSided": true,
      "name": "17_-_MetalCiemny1",
      "pbrMetallicRoughness": {
        "baseColorFactor": [
          0.0659148641,
          0.0820614749,
          0.0827801363,
          1.0
        ],
        "roughnessFactor": 0.0
      }
    },
    {
      "doubleSided": true,
      "name": "02_-_Tynk2",
      "pbrMetallicRoughness": {
        "baseColorFactor": [
          0.196078,
          0.196078,
          0.196078,
          1.0
        ],
        "metallicFactor": 0.0,
        "roughnessFactor": 0.8929713596
      }
    },
    {
      "doubleSided": true,
      "name": "26_-_Use2",
      "pbrMetallicRoughness": {
        "baseColorFactor": [
          0.0,
          0.0,
          0.0,
          1.0
        ],
        "metallicFactor": 0.0,
        "roughnessFactor": 0.8929713596
      }
    },
    {
      "alphaMode": "BLEND",
      "doubleSided": true,
      "name": "27_-_Use3",
      "pbrMetallicRoughness": {
        "baseColorFactor": [
          0.2482802702,
          0.2482802702,
          0.2482802702,
          0.1149895626
        ],
        "roughnessFactor": 0.0
      }
    },
    {
      "alphaMode": "BLEND",
      "doubleSided": true,
      "extensions": {
        "KHR_materials_transmission": {
          "transmissionFactor": 0.6271488022
        }
      },
      "name": "25_-_Use1",
      "pbrMetallicRoughness": {
        "baseColorFactor": [
          0.0048393666,
          0.0104879447,
          0.0758955804,
          0.3728511978
        ],
        "roughnessFactor": 0.0
      }
    }
  ],
  "meshes": [
    {
      "name": "B_13 - Szyby_0",
      "primitives": [
        {
          "attributes": {
            "NORMAL": 1,
            "POSITION": 0,
            "TEXCOORD_0": 2
          },
          "indices": 3,
          "material": 0,
          "mode": 4
        }
      ]
    },
    {
      "name": "B_14 - Futryny1_0",
      "primitives": [
        {
          "attributes": {
            "NORMAL": 5,
            "POSITION": 4,
            "TEXCOORD_0": 6
          },
          "indices": 7,
          "material": 1,
          "mode": 4
        }
      ]
    },
    {
      "name": "B_03 - Tynk3_0",
      "primitives": [
        {
          "attributes": {
            "NORMAL": 9,
            "POSITION": 8,
            "TEXCOORD_0": 10
          },
          "indices": 11,
          "material": 2,
          "mode": 4
        }
      ]
    },
    {
      "name": "B_01 - Tynk1_0",
      "primitives": [
        {
          "attributes": {
            "NORMAL": 13,
            "POSITION": 12,
            "TEXCOORD_0": 14
          },
          "indices": 15,
          "material": 3,
          "mode": 4
        }
      ]
    },
    {
      "name": "B_04 - Tynk4_0",
      "primitives": [
        {
          "attributes": {
            "NORMAL": 17,
            "POSITION": 16,
            "TEXCOORD_0": 18
          },
          "indices": 19,
          "material": 4,
          "mode": 4
        }
      ]
    },
    {
      "name": "B_28 - Use4_0",
      "primitives": [
        {
          "attributes": {
            "NORMAL": 21,
            "POSITION": 20,
            "TEXCOORD_0": 22
          },
          "indices": 23,
          "material": 5,
          "mode": 4
        }
      ]
    },
    {
      "name": "B_30 - Use6_0",
      "primitives": [
        {
          "attributes": {
            "NORMAL": 25,
            "POSITION": 24,
            "TEXCOORD_0": 26
          },
          "indices": 27,
          "material": 6,
          "mode": 4
        }
      ]
    },
    {
      "name": "B_29 - Use5_0",
      "primitives": [
        {
          "attributes": {
            "NORMAL": 29,
            "POSITION": 28,
            "TEXCOORD_0": 30
          },
          "indices": 31,
          "material": 7,
          "mode": 4
        }
      ]
    },
    {
      "name": "B_17 - MetalCiemny1_0",
      "primitives": [
        {
          "attributes": {
            "NORMAL": 33,
            "POSITION": 32,
            "TEXCOORD_0": 34
          },
          "indices": 35,
          "material": 8,
          "mode": 4
        }
      ]
    },
    {
      "name": "B_02 - Tynk2_0",
      "primitives": [
        {
          "attributes": {
            "NORMAL": 37,
            "POSITION": 36,
            "TEXCOORD_0": 38
          },
          "indices": 39,
          "material": 9,
          "mode": 4
        }
      ]
    },
    {
      "name": "B_26 - Use2_0",
      "primitives": [
        {
          "attributes": {
            "NORMAL": 41,
            "POSITION": 40,
            "TEXCOORD_0": 42
          },
          "indices": 43,
          "material": 10,
          "mode": 4
        }
      ]
    },
    {
      "name": "B_27 - Use3_0",
      "primitives": [
        {
          "attributes": {
            "NORMAL": 45,
            "POSITION": 44,
            "TEXCOORD_0": 46
          },
          "indices": 47,
          "material": 11,
          "mode": 4
        }
      ]
    },
    {
      "name": "B_25 - Use1_0",
      "primitives": [
        {
          "attributes": {
            "NORMAL": 49,
            "POSITION": 48,
            "TEXCOORD_0": 50
          },
          "indices": 51,
          "material": 12,
          "mode": 4
        }
      ]
    }
  ],
  "nodes": [
    {
      "children": [
        1
      ],
      "matrix": [
        0.022494152188301086,
        0.0,
        0.0,
        0.0,
        0.0,
        4.994705135774843e-18,
        -0.022494152188301086,
        0.0,
        0.0,
        0.022494152188301086,
        4.994705135774843e-18,
        0.0,
        0.0,
        0.0,
        0.0,
        1.0
      ],
      "name": "Sketchfab_model"
    },
    {
      "children": [
        2
      ],
      "matrix": [
        1.0,
        0.0,
        0.0,
        0.0,
        0.0,
        0.0,
        1.0,
        0.0,
        0.0,
        -1.0,
        0.0,
        0.0,
        0.0,
        0.0,
        0.0,
        1.0
      ],
      "name": "5855dc72fd0b43ed8b2c8ecdc5baa6d5.fbx"
    },
    {
      "children": [
        3
      ],
      "name": "RootNode"
    },
    {
      "children": [
        4,
        5,
        6,
        7,
        8,
        9,
        10,
        11,
        12,
        13,
        14,
        15,
        16
      ],
      "matrix": [
        1.0,
        0.0,
        0.0,
        0.0,
        0.0,
        2.220446049250313e-16,
        -1.0,
        0.0,
        0.0,
        1.0,
        2.220446049250313e-16,
        0.0,
        0.0,
        275.09979248046875,
        0.0,
        1.0
      ],
      "name": "B"
    },
    {
      "mesh": 0,
      "name": "B_13 - Szyby_0"
    },
    {
      "mesh": 1,
      "name": "B_14 - Futryny1_0"
    },
    {
      "mesh": 2,
      "name": "B_03 - Tynk3_0"
    },
    {
      "mesh": 3,
      "name": "B_01 - Tynk1_0"
    },
    {
      "mesh": 4,
      "name": "B_04 - Tynk4_0"
    },
    {
      "mesh": 5,
      "name": "B_28 - Use4_0"
    },
    {
      "mesh": 6,
      "name": "B_30 - Use6_0"
    },
    {
      "mesh": 7,
      "name": "B_29 - Use5_0"
    },
    {
      "mesh": 8,
      "name": "B_17 - MetalCiemny1_0"
    },
    {
      "mesh": 9,
      "name": "B_02 - Tynk2_0"
    },
    {
      "mesh": 10,
      "name": "B_26 - Use2_0"
    },
    {
      "mesh": 11,
      "name": "B_27 - Use3_0"
    },
    {
      "mesh": 12,
      "name": "B_25 - Use1_0"
    }
  ],
  "scene": 0,
  "scenes": [
    {
      "name": "Sketchfab_Scene",
      "nodes": [
        0
      ]
    }
  ]
}
